<svg width="26" height="18" viewBox="0 0 26 18" fill="none" xmlns="http://www.w3.org/2000/svg">
  <path d="M23.267 3.115H15.867V1H23.267V3.115ZM25.067 13.691C24.644 15.066 22.952 16.864 19.673 16.864C16.394 16.864 13.751 15.064 13.751 10.836C13.751 6.711 16.183 4.596 19.568 4.596C22.847 4.596 24.856 6.496 25.279 9.249C25.3809 10.0202 25.4164 10.7987 25.385 11.576H16.921C16.898 12.1492 17.0489 12.716 17.3538 13.2019C17.6587 13.6879 18.1033 14.0703 18.6294 14.299C19.1555 14.5277 19.7385 14.5921 20.3018 14.4835C20.8651 14.375 21.3825 14.0988 21.786 13.691H25.067ZM16.921 9.461H22.209C22.2063 9.12859 22.1335 8.8005 21.9953 8.49815C21.8572 8.1958 21.6568 7.926 21.4072 7.70638C21.1577 7.48676 20.8646 7.32226 20.5472 7.22363C20.2297 7.125 19.8951 7.09446 19.565 7.134C19.2382 7.11109 18.91 7.1533 18.5996 7.25819C18.2892 7.36308 18.0027 7.52856 17.7568 7.74502C17.5108 7.96149 17.3103 8.22464 17.1668 8.51921C17.0233 8.81377 16.9398 9.13389 16.921 9.461ZM6.874 16.861H0V1H7.4C13.217 1.106 13.322 6.711 10.255 8.3C13.854 9.672 13.96 16.864 6.874 16.864V16.861ZM3.174 7.343H6.98C9.624 7.343 10.047 4.17 6.663 4.17H3.173L3.174 7.343ZM6.768 10.521H3.168V13.691H6.658C9.941 13.691 9.73 10.521 6.768 10.521Z" fill="#E3E3E3"/>
  </svg>
  