<svg width="39" height="40" viewBox="0 0 39 40" fill="none" xmlns="http://www.w3.org/2000/svg">
<path d="M21.8699 17.31C21.1211 17.3925 20.4122 17.6901 19.8289 18.1668C19.2456 18.6436 18.8128 19.2791 18.5829 19.9966C18.353 20.714 18.336 21.4827 18.5336 22.2097C18.7312 22.9367 19.1352 23.5909 19.6967 24.0932C20.2582 24.5955 20.9531 24.9244 21.6975 25.0402C22.442 25.156 23.204 25.0537 23.8915 24.7457C24.579 24.4377 25.1625 23.9371 25.5717 23.3045C25.9808 22.6719 26.198 21.9344 26.1969 21.181C26.1327 20.0953 25.6417 19.079 24.8311 18.3538C24.0205 17.6286 22.9561 17.2534 21.8699 17.31V17.31ZM23.6979 22.51C23.2022 22.9769 22.547 23.2369 21.866 23.2369C21.185 23.2369 20.5297 22.9769 20.034 22.51C19.8094 22.2959 19.6334 22.0359 19.5183 21.7477C19.4032 21.4595 19.3517 21.1499 19.367 20.84C19.3861 20.5407 19.4661 20.2484 19.6023 19.9811C19.7385 19.7139 19.928 19.4773 20.159 19.286C20.6391 18.8896 21.2423 18.6728 21.8649 18.6728C22.4875 18.6728 23.0908 18.8896 23.571 19.286C23.8023 19.4771 23.992 19.7136 24.1286 19.9809C24.2651 20.2481 24.3455 20.5405 24.3649 20.84C24.3801 21.1502 24.3285 21.4601 24.2134 21.7486C24.0983 22.037 23.9225 22.2974 23.6979 22.512V22.51Z" fill="#707070"/>
<path d="M35.6 8.45802C35.3026 7.18497 34.5805 6.05117 33.5526 5.24339C32.5247 4.43561 31.2522 4.00201 29.9449 4.01402C22.9009 3.99602 15.8567 3.99602 8.81201 4.01402C7.40587 4.00139 6.04383 4.50438 4.9834 5.4279C3.92297 6.35142 3.23765 7.63146 3.05701 9.02601C3.04343 9.07552 3.02463 9.12346 3.00098 9.16902V30.797C3.05398 31.033 3.10103 31.27 3.16003 31.504C3.45744 32.7769 4.17914 33.9107 5.20654 34.7189C6.23395 35.5272 7.50583 35.9617 8.81299 35.951C15.857 35.9723 22.9006 35.9723 29.944 35.951C31.3504 35.9659 32.7136 35.4644 33.7751 34.5417C34.8367 33.6189 35.5229 32.3389 35.704 30.944C35.7184 30.8725 35.7375 30.8021 35.761 30.733V9.23301C35.707 8.97501 35.662 8.71402 35.6 8.45802ZM28.874 22.224C28.8382 22.6695 28.7527 23.1096 28.619 23.536C28.3434 24.4069 27.8821 25.2077 27.267 25.883C26.6062 26.608 25.8015 27.187 24.9041 27.583C23.9281 28.0166 22.8719 28.2401 21.804 28.239H21.7939C20.729 28.2431 19.6753 28.023 18.701 27.593C17.802 27.1989 16.9961 26.6196 16.3361 25.893C15.7198 25.2195 15.258 24.4196 14.983 23.549C14.7822 22.9951 14.719 22.4007 14.799 21.817L10.978 24.944C10.6503 25.2167 10.2393 25.3695 9.81299 25.377C9.62479 25.3841 9.43748 25.3474 9.26587 25.2698C9.09425 25.1923 8.943 25.076 8.82397 24.93C8.72971 24.8065 8.66137 24.6653 8.62305 24.5148C8.58473 24.3642 8.5772 24.2075 8.60095 24.054C8.67444 23.5871 8.92977 23.1683 9.31104 22.889L9.33899 22.869L16.415 17.634H15.629C14.806 17.634 13.981 17.634 13.16 17.634H12.5649C12.3869 17.6372 12.2103 17.6007 12.0481 17.5272C11.8859 17.4537 11.742 17.345 11.627 17.209C11.5214 17.0865 11.4438 16.9427 11.399 16.7874C11.3543 16.632 11.3438 16.4688 11.368 16.309C11.4504 15.9536 11.6627 15.6418 11.9631 15.4347C12.2636 15.2277 12.6305 15.1404 12.9919 15.19L20.792 15.195C20.385 14.873 19.975 14.542 19.578 14.222C19.181 13.902 18.76 13.561 18.35 13.238C18.2532 13.1662 18.1748 13.0725 18.1211 12.9646C18.0674 12.8566 18.04 12.7376 18.041 12.617C18.0523 12.485 18.0944 12.3574 18.1638 12.2445C18.2333 12.1316 18.3283 12.0366 18.441 11.967C18.6883 11.7998 18.9806 11.7119 19.2791 11.715C19.5682 11.7086 19.8516 11.7967 20.0861 11.966L20.1 11.978L26.4659 16.866C27.0621 17.3364 27.5726 17.906 27.975 18.55C28.6609 19.6427 28.9782 20.9266 28.88 22.213L28.874 22.224Z" fill="#707070"/>
</svg>
