<svg width="39" height="40" viewBox="0 0 39 40" fill="none" xmlns="http://www.w3.org/2000/svg">
<path d="M3 30.797V9.17299C3.02405 9.12761 3.04287 9.07964 3.05603 9.03C3.2369 7.63537 3.92238 6.3553 4.98297 5.43179C6.04356 4.50829 7.40576 4.00533 8.81201 4.01799C15.856 3.99799 22.9 3.99799 29.944 4.01799C31.2511 4.00621 32.5233 4.43992 33.551 5.24768C34.5787 6.05545 35.3007 7.18911 35.598 8.46199C35.661 8.71799 35.707 8.979 35.76 9.237V30.737C35.7365 30.8061 35.7172 30.8766 35.702 30.948C35.521 32.3429 34.8347 33.6229 33.7731 34.5457C32.7116 35.4684 31.3485 35.9699 29.942 35.955C22.8987 35.977 15.855 35.977 8.81097 35.955C7.50382 35.9657 6.23199 35.5311 5.20459 34.7229C4.17719 33.9147 3.45543 32.7809 3.15802 31.508C3.10002 31.273 3.053 31.033 3 30.797ZM16.3 12.184C15.778 12.184 15.255 12.193 14.733 12.184C14.496 12.178 14.406 12.242 14.38 12.501C14.3448 12.9344 14.2623 13.3626 14.134 13.778C13.67 15.178 13.172 16.578 12.687 17.972C11.7443 20.686 10.8013 23.3997 9.85797 26.113C9.70697 26.547 9.73202 26.579 10.197 26.579C10.911 26.579 11.626 26.568 12.339 26.584C12.3934 26.5919 12.4488 26.589 12.502 26.5755C12.5553 26.562 12.6054 26.5381 12.6494 26.5053C12.6934 26.4724 12.7305 26.4311 12.7586 26.3839C12.7867 26.3367 12.8051 26.2844 12.813 26.23C13.097 25.305 13.413 24.387 13.698 23.463C13.76 23.263 13.835 23.173 14.069 23.175C15.583 23.188 17.096 23.186 18.61 23.175C18.6921 23.1628 18.7757 23.1834 18.8428 23.2322C18.9099 23.281 18.9552 23.3542 18.969 23.436C19.282 24.375 19.618 25.306 19.929 26.245C19.9446 26.3493 20.0007 26.4432 20.0851 26.5063C20.1696 26.5694 20.2756 26.5966 20.38 26.582C21.211 26.567 22.043 26.582 22.874 26.576C23.242 26.576 23.267 26.54 23.143 26.189C21.523 21.615 19.904 17.041 18.286 12.467C18.2662 12.3744 18.2115 12.293 18.1334 12.2395C18.0552 12.1861 17.9595 12.1648 17.866 12.18C17.345 12.194 16.823 12.185 16.3 12.185V12.184ZM27.7 21.132C27.7 19.438 27.693 17.743 27.707 16.049C27.707 15.749 27.607 15.664 27.322 15.67C26.544 15.685 25.766 15.684 24.988 15.67C24.722 15.67 24.637 15.76 24.638 16.022C24.644 19.422 24.644 22.822 24.638 26.222C24.638 26.497 24.738 26.598 25.014 26.592C25.749 26.578 26.484 26.592 27.22 26.592C27.699 26.592 27.699 26.592 27.7 26.126C27.7 24.4593 27.7 22.7947 27.7 21.132V21.132ZM27.891 12.796C27.9062 12.572 27.8738 12.3473 27.7961 12.1367C27.7184 11.926 27.5971 11.7342 27.4401 11.5737C27.2831 11.4132 27.094 11.2877 26.8851 11.2053C26.6762 11.123 26.4523 11.0858 26.228 11.096C26.0015 11.0874 25.7757 11.1251 25.5642 11.2067C25.3528 11.2883 25.1601 11.4121 24.9981 11.5707C24.8361 11.7292 24.7082 11.9191 24.622 12.1287C24.5358 12.3384 24.4933 12.5634 24.497 12.79C24.484 13.0206 24.518 13.2515 24.5972 13.4685C24.6763 13.6855 24.7989 13.8842 24.9573 14.0522C25.1158 14.2203 25.3068 14.3543 25.5188 14.4461C25.7308 14.5379 25.9593 14.5855 26.1903 14.5861C26.4213 14.5866 26.65 14.5401 26.8624 14.4493C27.0748 14.3585 27.2665 14.2254 27.4257 14.058C27.585 13.8907 27.7085 13.6927 27.7886 13.476C27.8688 13.2594 27.904 13.0287 27.892 12.798L27.891 12.796Z" fill="#707070"/>
<path d="M16.328 14.778L18.052 20.392H14.595L16.259 14.792L16.328 14.778Z" fill="#707070"/>
</svg>
