<svg width="39" height="40" viewBox="0 0 39 40" fill="none" xmlns="http://www.w3.org/2000/svg">
<path d="M3 30.797V9.173C3.02385 9.12754 3.04266 9.07958 3.05603 9.03C3.23669 7.63528 3.92215 6.35509 4.98279 5.43155C6.04343 4.50801 7.4057 4.00512 8.81201 4.01799C15.856 3.99799 22.9003 3.99799 29.9449 4.01799C31.2521 4.00603 32.5244 4.43967 33.5521 5.24747C34.5799 6.05526 35.3018 7.18904 35.599 8.46201C35.662 8.71801 35.708 8.979 35.761 9.237V30.737C35.7375 30.8061 35.7182 30.8766 35.703 30.948C35.5222 32.3429 34.8359 33.6231 33.7743 34.5459C32.7127 35.4687 31.3495 35.9701 29.943 35.955C22.899 35.977 15.8553 35.977 8.81201 35.955C7.50485 35.9657 6.23297 35.5311 5.20557 34.7229C4.17816 33.9147 3.45647 32.7809 3.15906 31.508C3.10006 31.273 3.053 31.033 3 30.797ZM24.108 15.497C23.5 15.497 22.933 15.454 22.374 15.504C21.6216 15.5501 20.8858 15.7447 20.2089 16.0764C19.532 16.4082 18.9273 16.8706 18.4299 17.4371C17.9325 18.0036 17.5521 18.6628 17.3107 19.377C17.0692 20.0911 16.9714 20.8459 17.0229 21.598C16.9881 22.7744 17.3737 23.9247 18.1105 24.8426C18.8472 25.7604 19.8869 26.3856 21.043 26.606C23.0525 27.0112 25.1377 26.7971 27.0229 25.992C27.2229 25.914 27.233 25.759 27.223 25.576C27.191 24.927 27.149 24.276 27.147 23.628C27.138 21.059 27.147 18.49 27.147 15.921C27.147 14.397 27.147 12.872 27.147 11.348C27.147 11.108 27.095 11.009 26.829 11.015C26.019 11.032 25.209 11.025 24.399 11.015C24.21 11.015 24.099 11.043 24.104 11.272C24.117 11.698 24.104 12.125 24.104 12.551L24.108 15.497ZM11.8571 19.378C11.8571 21.648 11.8571 23.918 11.8571 26.188C11.8571 26.488 11.94 26.601 12.257 26.588C13.013 26.567 13.77 26.571 14.527 26.588C14.818 26.594 14.9149 26.502 14.9139 26.205C14.9059 21.6543 14.9059 17.1033 14.9139 12.552C14.9139 12.28 14.833 12.171 14.548 12.177C13.802 12.192 13.0561 12.177 12.3101 12.182C11.8701 12.182 11.864 12.188 11.864 12.628C11.8587 14.8787 11.856 17.127 11.856 19.373L11.8571 19.378Z" fill="#707070"/>
<path d="M24.0911 17.999C24.0991 18.189 24.1071 18.283 24.1071 18.377C24.1071 20.177 24.1021 21.977 24.1131 23.777C24.1131 24.042 24.0281 24.147 23.7731 24.141C23.3162 24.1615 22.8585 24.1501 22.4031 24.107C21.7867 24.0302 21.2193 23.7315 20.8071 23.2668C20.3948 22.8021 20.1659 22.2032 20.1631 21.582C20.1219 21.0943 20.1512 20.6033 20.2502 20.124C20.414 19.5403 20.7556 19.0222 21.2275 18.6415C21.6993 18.2609 22.278 18.0366 22.8831 18C23.2811 17.976 23.6821 17.999 24.0911 17.999Z" fill="#707070"/>
</svg>
