<svg width="21" height="21" viewBox="0 0 21 21" fill="none" xmlns="http://www.w3.org/2000/svg">
  <g clip-path="url(#clip0_78_10)">
  <path d="M10.261 1.881C12.997 1.881 13.339 1.881 14.451 1.967C17.273 2.053 18.551 3.421 18.641 6.157C18.727 7.269 18.727 7.525 18.727 10.257C18.727 12.989 18.727 13.335 18.641 14.357C18.556 17.093 17.187 18.457 14.451 18.547C13.339 18.632 13.083 18.632 10.261 18.632C7.525 18.632 7.183 18.632 6.161 18.547C3.339 18.461 2.061 17.093 1.971 14.357C1.877 13.254 1.877 13 1.877 10.261C1.877 7.522 1.877 7.183 1.963 6.161C2.049 3.425 3.417 2.061 6.153 1.971C7.183 1.881 7.525 1.881 10.261 1.881ZM10.261 0C7.439 0 7.097 0 6.071 0.086C2.309 0.257 0.257 2.309 0.086 6.071C-7.45058e-09 7.1 0 7.439 0 10.261C0 13.083 -7.45058e-09 13.425 0.086 14.451C0.257 18.213 2.309 20.266 6.072 20.437C7.098 20.523 7.44 20.523 10.262 20.523C13.084 20.523 13.426 20.523 14.452 20.437C18.214 20.266 20.267 18.214 20.438 14.451C20.524 13.425 20.524 13.083 20.524 10.261C20.524 7.439 20.524 7.097 20.438 6.071C20.266 2.309 18.214 0.257 14.451 0.086C13.425 0 13.083 0 10.261 0ZM10.261 4.96C9.21276 4.96 8.18806 5.27084 7.31648 5.85321C6.4449 6.43558 5.76558 7.26333 5.36444 8.23178C4.96329 9.20023 4.85834 10.2659 5.06284 11.294C5.26734 12.3221 5.77212 13.2664 6.51333 14.0077C7.25455 14.7489 8.19892 15.2537 9.22702 15.4582C10.2551 15.6627 11.3208 15.5577 12.2892 15.1566C13.2577 14.7554 14.0854 14.0761 14.6678 13.2045C15.2502 12.3329 15.561 11.3082 15.561 10.26C15.5536 8.85662 14.9929 7.51281 14.0005 6.52046C13.0082 5.52811 11.6644 4.96736 10.261 4.96V4.96ZM10.261 13.682C9.58446 13.6828 8.92289 13.4829 8.35997 13.1076C7.79704 12.7324 7.35807 12.1986 7.09858 11.5738C6.83908 10.949 6.77073 10.2613 6.90215 9.59761C7.03358 8.93396 7.35889 8.3242 7.83693 7.84547C8.31496 7.36673 8.92425 7.04053 9.58771 6.90813C10.2512 6.77573 10.939 6.84308 11.5642 7.10166C12.1893 7.36024 12.7238 7.79844 13.0999 8.36081C13.476 8.92318 13.6768 9.58446 13.677 10.261C13.6746 11.1667 13.3141 12.0347 12.6742 12.6756C12.0342 13.3165 11.1667 13.6783 10.261 13.682ZM15.734 3.592C15.5753 3.58773 15.4173 3.61585 15.2698 3.67465C15.1223 3.73344 14.9883 3.82168 14.876 3.93397C14.7637 4.04626 14.6754 4.18026 14.6166 4.32778C14.5579 4.4753 14.5297 4.63325 14.534 4.792C14.5224 4.95632 14.5447 5.12127 14.5996 5.27659C14.6544 5.43191 14.7407 5.57427 14.853 5.6948C14.9653 5.81533 15.1012 5.91144 15.2523 5.97716C15.4033 6.04288 15.5663 6.0768 15.731 6.0768C15.8957 6.0768 16.0587 6.04288 16.2097 5.97716C16.3608 5.91144 16.4967 5.81533 16.609 5.6948C16.7213 5.57427 16.8076 5.43191 16.8624 5.27659C16.9173 5.12127 16.9396 4.95632 16.928 4.792C16.9324 4.63369 16.9045 4.47613 16.8462 4.32891C16.7878 4.18168 16.7001 4.04785 16.5885 3.93553C16.4768 3.82322 16.3435 3.73477 16.1966 3.67554C16.0497 3.61631 15.8923 3.58755 15.734 3.591V3.592Z" fill="#E3E3E3"/>
  </g>
  <defs>
  <clipPath id="clip0_78_10">
  <rect width="21" height="21" fill="white"/>
  </clipPath>
  </defs>
  </svg>