<svg width="21" height="21" viewBox="0 0 21 21" fill="none" xmlns="http://www.w3.org/2000/svg">
  <path d="M5.1311 2.0661C5.13364 2.33798 5.08195 2.60765 4.97908 2.85933C4.8762 3.11101 4.72419 3.33967 4.53193 3.53193C4.33967 3.72419 4.11101 3.8762 3.85933 3.97908C3.60765 4.08195 3.33798 4.13364 3.0661 4.1311C2.79413 4.13377 2.52436 4.08219 2.27256 3.97937C2.02076 3.87655 1.79199 3.72456 1.59962 3.53229C1.40725 3.34001 1.25515 3.11132 1.15221 2.85957C1.04927 2.60782 0.99756 2.33807 1.0001 2.0661C0.997426 1.79404 1.04904 1.52419 1.15192 1.27232C1.2548 1.02046 1.40688 0.79164 1.59926 0.59926C1.79164 0.406879 2.02046 0.254799 2.27232 0.15192C2.52419 0.0490397 2.79404 -0.0025739 3.0661 9.87297e-05C3.33807 -0.00244012 3.60782 0.0492723 3.85957 0.152212C4.11132 0.255152 4.34001 0.407252 4.53229 0.599619C4.72456 0.791986 4.87655 1.02076 4.97937 1.27256C5.08219 1.52436 5.13377 1.79413 5.1311 2.0661V2.0661ZM5.1311 5.7841H1.0001V19.0041H5.1311V5.7841ZM11.7411 5.7841H7.6101V19.0041H11.7411V12.0641C11.7411 8.1811 16.6981 7.8501 16.6981 12.0641V19.0041H20.8291V10.6581C20.8291 4.1311 13.4751 4.3791 11.7401 7.6011L11.7411 5.7841Z" fill="#E3E3E3"/>
  </svg>