<svg xmlns="http://www.w3.org/2000/svg" xmlns:xlink="http://www.w3.org/1999/xlink" width="22" height="18" viewBox="0 0 22 18">
  <defs>
    <clipPath id="clip-Artboard_13">
      <rect width="22" height="18"/>
    </clipPath>
  </defs>
  <g id="Artboard_13" data-name="Artboard – 13" clip-path="url(#clip-Artboard_13)">
    <rect width="22" height="18" fill="#fff"/>
    <g id="Group_12" data-name="Group 12" transform="translate(-104 -269.501)">
      <path id="Path_11" data-name="Path 11" d="M106,282.745v-8.489a.634.634,0,0,0,.031-.1,3.137,3.137,0,0,1,3.114-2.731q5.879-.014,11.757,0a3.249,3.249,0,0,1,3.2,3.231c.024,2.587.01,5.174,0,7.762a3.165,3.165,0,0,1-3.146,3.159q-5.905.013-11.81,0a3.16,3.16,0,0,1-2.985-2.167C106.094,283.194,106.055,282.967,106,282.745Zm1.8-8.146c0,.084-.009.13-.009.176q0,3.836,0,7.673a1.489,1.489,0,0,0,.027.316,1.394,1.394,0,0,0,1.414,1.1q2.731,0,5.463,0,3.032,0,6.064,0a1.4,1.4,0,0,0,1.213-.6,1.5,1.5,0,0,0,.234-.934c-.012-2.5-.007-5-.007-7.5V274.6c-.082.064-.132.1-.181.143q-2.438,2.044-4.875,4.089a3.268,3.268,0,0,1-4.279.012q-1.662-1.388-3.318-2.782Zm1.186-1.362c.057.053.085.082.116.109q2.451,2.056,4.9,4.11a1.507,1.507,0,0,0,2.139-.041q2.388-2.035,4.771-4.075c.031-.026.057-.059.1-.1Z"/>
    </g>
  </g>
</svg>
