<svg width="18" height="14" viewBox="0 0 18 14" fill="none" xmlns="http://www.w3.org/2000/svg">
  <g clip-path="url(#clip0_80_153)">
  <path d="M0 11.327V2.83802C0.0130726 2.8056 0.0234395 2.77215 0.0309982 2.73802C0.12965 1.98218 0.500126 1.28813 1.0732 0.785534C1.64628 0.28294 2.38275 0.00617784 3.145 0.007C7.06433 -0.00233333 10.9833 -0.00233333 14.902 0.007C15.7521 0.0198092 16.5632 0.365298 17.1615 0.969341C17.7597 1.57338 18.0974 2.38787 18.102 3.23802C18.126 5.82502 18.112 8.41201 18.102 11C18.1004 11.8351 17.7689 12.6357 17.1796 13.2274C16.5903 13.8191 15.7911 14.154 14.956 14.159C11.0193 14.1677 7.08267 14.1677 3.146 14.159C2.4842 14.1559 1.84007 13.9451 1.3045 13.5563C0.768938 13.1675 0.368965 12.6203 0.161003 11.992C0.0940031 11.776 0.055 11.549 0 11.327ZM1.8 3.18101C1.8 3.26501 1.791 3.31101 1.791 3.35701C1.791 5.91434 1.791 8.47201 1.791 11.03C1.78872 11.136 1.79778 11.2419 1.818 11.346C1.88687 11.6663 2.06634 11.9521 2.32491 12.1532C2.58347 12.3544 2.90463 12.458 3.232 12.446C5.05267 12.446 6.87367 12.446 8.695 12.446C10.7163 12.446 12.7377 12.446 14.759 12.446C14.9954 12.4567 15.2307 12.4072 15.4428 12.3023C15.6549 12.1974 15.837 12.0404 15.972 11.846C16.1505 11.5689 16.2328 11.2406 16.206 10.912C16.194 8.412 16.199 5.912 16.199 3.412V3.18202C16.117 3.24602 16.067 3.28202 16.018 3.32502C14.3927 4.68769 12.7677 6.05068 11.143 7.41401C10.5504 7.93018 9.79162 8.21552 9.00574 8.21772C8.21985 8.21993 7.45949 7.93885 6.864 7.42601C5.756 6.50067 4.65 5.57336 3.546 4.64402L1.8 3.18101ZM2.986 1.81901C3.043 1.87201 3.071 1.90102 3.102 1.92802C4.736 3.29869 6.36933 4.66867 8.002 6.03801C8.14476 6.17646 8.31353 6.2853 8.49855 6.35823C8.68357 6.43115 8.8812 6.46674 9.08004 6.46293C9.27888 6.45912 9.475 6.41597 9.65709 6.33601C9.83918 6.25605 10.0036 6.14085 10.141 5.99702C11.733 4.64035 13.3233 3.28201 14.912 1.92201C14.943 1.89601 14.969 1.863 15.012 1.822L2.986 1.81901Z" fill="black"/>
  </g>
  <defs>
  <clipPath id="clip0_80_153">
  <rect width="18" height="14" fill="white"/>
  </clipPath>
  </defs>
  </svg>