<svg width="39" height="40" viewBox="0 0 39 40" fill="none" xmlns="http://www.w3.org/2000/svg">
<path d="M3 30.796V9.16C3.02224 9.12551 3.03973 9.08816 3.052 9.049C3.23353 7.6202 3.94175 6.31056 5.03796 5.37636C6.13418 4.44216 7.5395 3.95065 8.979 3.998C15.9123 3.998 22.8457 3.998 29.7791 3.998C30.131 3.99197 30.4828 4.01471 30.8311 4.06599C32.2228 4.26934 33.4925 4.97362 34.4019 6.04666C35.3112 7.1197 35.7977 8.48773 35.77 9.894C35.77 16.6133 35.77 23.3327 35.77 30.052C35.7875 30.8255 35.6491 31.5946 35.363 32.3134C35.077 33.0323 34.6492 33.6862 34.1051 34.2362C33.561 34.7862 32.9117 35.2211 32.1959 35.5148C31.4802 35.8085 30.7126 35.9552 29.939 35.946C22.899 35.9687 15.8593 35.9687 8.81995 35.946C7.51164 35.9575 6.23843 35.5233 5.20972 34.7149C4.18101 33.9064 3.45817 32.7719 3.16003 31.498C3.10003 31.269 3.053 31.032 3 30.796ZM13.335 22.025C13.525 22.025 13.673 22.031 13.821 22.025C14.693 21.985 15.574 22.01 16.434 21.888C17.6305 21.7906 18.7429 21.2336 19.5377 20.3338C20.3325 19.4341 20.748 18.2614 20.697 17.062C20.7319 16.0735 20.4459 15.1003 19.8817 14.2879C19.3175 13.4755 18.5054 12.8675 17.567 12.555C16.6457 12.2448 15.6766 12.1006 14.705 12.129C13.393 12.14 12.083 12.197 10.771 12.206C10.443 12.206 10.359 12.306 10.361 12.624C10.374 15.109 10.368 17.593 10.368 20.078C10.368 22.126 10.368 24.178 10.368 26.221C10.368 26.497 10.4471 26.596 10.7321 26.59C11.4781 26.5733 12.2243 26.5733 12.9709 26.59C13.2479 26.596 13.352 26.51 13.345 26.227C13.329 25.641 13.345 25.054 13.345 24.468L13.335 22.025ZM22.187 23.573C22.1681 23.6192 22.157 23.6682 22.1541 23.718C22.1541 24.454 22.1541 25.189 22.1541 25.925C22.1512 26.0158 22.1792 26.1049 22.2338 26.1776C22.2883 26.2503 22.366 26.3023 22.454 26.325C23.3378 26.6751 24.2785 26.8595 25.229 26.869C26.2329 26.9478 27.2406 26.7788 28.1639 26.377C28.7 26.1552 29.1634 25.7879 29.5016 25.3166C29.8398 24.8453 30.0395 24.2888 30.078 23.71C30.1602 23.112 30.0506 22.5033 29.7649 21.9716C29.4792 21.4398 29.0321 21.0125 28.488 20.751C27.929 20.451 27.336 20.205 26.762 19.927C26.275 19.691 25.783 19.463 25.316 19.192C25.2062 19.1319 25.1198 19.0365 25.0708 18.9213C25.0218 18.8061 25.0131 18.6778 25.046 18.557C25.0698 18.4292 25.1332 18.3121 25.2273 18.2224C25.3213 18.1326 25.4412 18.0748 25.5699 18.057C25.8504 17.9961 26.1361 17.9626 26.423 17.957C27.364 17.9551 28.2939 18.16 29.147 18.557C29.412 18.687 29.529 18.622 29.532 18.357C29.54 17.664 29.532 16.971 29.532 16.278C29.5423 16.1921 29.5193 16.1055 29.4678 16.036C29.4163 15.9664 29.3402 15.9192 29.255 15.904C28.789 15.797 28.327 15.658 27.855 15.598C26.7894 15.4132 25.696 15.4696 24.655 15.763C24.0219 15.9173 23.4503 16.2596 23.0155 16.7449C22.5807 17.2302 22.303 17.8358 22.219 18.482C22.1109 19.1156 22.2128 19.7671 22.509 20.3375C22.8052 20.9079 23.2796 21.366 23.86 21.642C24.6 22.056 25.402 22.357 26.167 22.727C26.4478 22.8519 26.7092 23.0166 26.943 23.216C27.0184 23.2813 27.0755 23.365 27.1088 23.459C27.1421 23.5529 27.1505 23.6539 27.1331 23.7521C27.1156 23.8503 27.0729 23.9422 27.0093 24.019C26.9456 24.0957 26.8632 24.1547 26.77 24.19C26.6192 24.2697 26.4532 24.3167 26.283 24.328C25.7219 24.3716 25.1578 24.3558 24.6 24.281C23.795 24.119 23.017 23.825 22.187 23.573V23.573Z" fill="#707070"/>
<path d="M13.3699 19.428V14.848C14.4105 14.7147 15.4676 14.8061 16.4698 15.116C16.8335 15.2884 17.143 15.5572 17.3645 15.8932C17.586 16.2292 17.711 16.6196 17.7261 17.0217C17.7411 17.4239 17.6456 17.8225 17.4498 18.1741C17.2541 18.5257 16.9656 18.8169 16.6158 19.016C16.1613 19.2204 15.678 19.3536 15.1829 19.411C14.5793 19.4505 13.974 19.4562 13.3699 19.428V19.428Z" fill="#707070"/>
</svg>
