<svg xmlns="http://www.w3.org/2000/svg" xmlns:xlink="http://www.w3.org/1999/xlink" width="89" height="40" viewBox="0 0 89 40">
  <defs>
    <clipPath id="clip-Artboard_5">
      <rect width="89" height="40"/>
    </clipPath>
  </defs>
  <g id="Artboard_5" data-name="Artboard – 5" clip-path="url(#clip-Artboard_5)">
    <rect width="89" height="40" fill="#fff"/>
    <g id="Group_87" data-name="Group 87" transform="translate(-1025.662 -2020.842)">
      <g id="Group_70" data-name="Group 70" transform="translate(-1213.497 1621.438)">
        <path id="Path_31" data-name="Path 31" d="M2289.086,420.072V417.9c.03-.261.06-.522.089-.783a18.636,18.636,0,0,1,15.291-16.419c.7-.124,1.408-.194,2.112-.289h2.177c.622.078,1.247.134,1.864.238a18.626,18.626,0,0,1,15.522,20.211,17.722,17.722,0,0,1-4.536,10.383,18.191,18.191,0,0,1-13.159,6.3,17.665,17.665,0,0,1-10.248-2.589,18.306,18.306,0,0,1-8.823-12.768C2289.245,421.485,2289.181,420.776,2289.086,420.072Zm21.03-1.1c-.118.125-.206.222-.3.314q-3.064,3.066-6.129,6.131a4.022,4.022,0,0,0-.342.374,1.523,1.523,0,0,0,.29,2.16,1.556,1.556,0,0,0,2.152-.257q3.71-3.7,7.415-7.411a1.61,1.61,0,0,0-.006-2.606q-3.668-3.668-7.337-7.334a3.369,3.369,0,0,0-.376-.339,1.446,1.446,0,0,0-1.233-.271,1.493,1.493,0,0,0-1.159,1.08,1.515,1.515,0,0,0,.448,1.586q1.5,1.505,3,3Z" fill="#e3e3e3"/>
      </g>
      <g id="Group_71" data-name="Group 71" transform="translate(1026.662 2021.842)">
        <path id="Path_31-2" data-name="Path 31" d="M2326.231,420.072v-2.177c-.03-.261-.06-.522-.089-.783a18.636,18.636,0,0,0-15.291-16.419c-.7-.124-1.408-.194-2.112-.289h-2.177c-.622.078-1.247.134-1.864.238a18.626,18.626,0,0,0-15.522,20.211,17.722,17.722,0,0,0,4.536,10.383,18.191,18.191,0,0,0,13.159,6.3,17.665,17.665,0,0,0,10.248-2.589,18.306,18.306,0,0,0,8.823-12.768C2326.072,421.485,2326.137,420.776,2326.231,420.072Zm-21.03-1.1c.118.125.206.222.3.314q3.064,3.066,6.129,6.131a4.022,4.022,0,0,1,.342.374,1.523,1.523,0,0,1-.29,2.16,1.556,1.556,0,0,1-2.152-.257q-3.71-3.7-7.415-7.411a1.61,1.61,0,0,1,.006-2.606q3.668-3.668,7.337-7.334a3.368,3.368,0,0,1,.376-.339,1.446,1.446,0,0,1,1.233-.271,1.493,1.493,0,0,1,1.159,1.08,1.515,1.515,0,0,1-.448,1.586q-1.5,1.505-3,3Z" transform="translate(-2289.086 -400.404)" fill="#e3e3e3"/>
      </g>
    </g>
  </g>
</svg>
