<svg width="21" height="21" viewBox="0 0 21 21" fill="none" xmlns="http://www.w3.org/2000/svg">
  <g clip-path="url(#clip0_78_9)">
  <path d="M11.181 21.0641H9.866C9.82128 21.0495 9.77547 21.0385 9.729 21.0311C7.76371 20.8976 5.87899 20.1985 4.302 19.0181C2.10723 17.4299 0.621806 15.0453 0.164001 12.3751C0.0920015 11.9861 0.054 11.5911 0 11.1991V9.88413C0.012 9.81713 0.0310031 9.75112 0.0360031 9.68412C0.17916 7.52685 1.01933 5.47451 2.43 3.83612C3.64098 2.32512 5.25557 1.18844 7.08645 0.557972C8.91733 -0.0724993 10.8894 -0.170922 12.774 0.274128C15.0723 0.771539 17.1369 2.02651 18.6365 3.83773C20.1362 5.64894 20.984 7.91139 21.044 10.2621C21.1079 12.2456 20.5952 14.2051 19.568 15.9031C18.8039 17.2128 17.7621 18.3391 16.5159 19.203C15.2698 20.0668 13.8495 20.6471 12.355 20.9031C11.968 20.9741 11.573 21.0101 11.181 21.0641ZM9.236 5.51212L9.231 5.45812C8.202 5.53912 7.168 5.58612 6.144 5.71212C5.43479 5.822 4.73157 5.96752 4.037 6.14812C3.85664 6.18144 3.68991 6.26664 3.55723 6.39328C3.42455 6.51992 3.33168 6.6825 3.29 6.86112C3.23069 7.04218 3.22402 7.23635 3.27076 7.42105C3.3175 7.60576 3.41572 7.7734 3.55401 7.90445C3.6923 8.03551 3.86496 8.1246 4.0519 8.16137C4.23885 8.19813 4.43238 8.18106 4.61 8.11213C7.36679 7.40403 10.2519 7.35777 13.03 7.97712C14.3424 8.23007 15.6048 8.69482 16.768 9.35312C16.905 9.4367 17.0607 9.48465 17.2209 9.4926C17.3812 9.50056 17.5409 9.46827 17.6854 9.39867C17.83 9.32907 17.9548 9.22438 18.0486 9.09415C18.1423 8.96392 18.2019 8.81231 18.222 8.65313C18.2682 8.43237 18.2384 8.2025 18.1375 8.00081C18.0365 7.79913 17.8704 7.63747 17.666 7.54212C17.0387 7.20897 16.3938 6.91021 15.734 6.64713C13.6497 5.89676 11.4513 5.51243 9.236 5.51113V5.51212ZM8.849 9.13112C7.43643 9.12695 6.02986 9.31501 4.668 9.69013C4.54766 9.71201 4.43332 9.75912 4.33251 9.82839C4.2317 9.89765 4.1467 9.98749 4.08312 10.092C4.01954 10.1965 3.97881 10.3133 3.96362 10.4346C3.94843 10.556 3.95913 10.6792 3.995 10.7961C4.026 10.9108 4.0812 11.0174 4.15689 11.1089C4.23258 11.2004 4.32701 11.2746 4.43381 11.3266C4.5406 11.3785 4.65729 11.4069 4.776 11.41C4.89471 11.413 5.0127 11.3905 5.122 11.3441C5.9058 11.1196 6.70959 10.9719 7.522 10.9031C9.60936 10.7036 11.7147 10.9855 13.676 11.7271C14.331 11.9771 14.948 12.3271 15.585 12.6271C15.6994 12.6871 15.8265 12.7184 15.9557 12.7185C16.0848 12.7186 16.212 12.6875 16.3265 12.6278C16.441 12.568 16.5393 12.4815 16.613 12.3755C16.6868 12.2695 16.7338 12.1472 16.75 12.0191C16.7876 11.8172 16.7558 11.6085 16.6598 11.4269C16.5637 11.2454 16.4091 11.1016 16.221 11.0191C13.9717 9.75423 11.4294 9.10279 8.849 9.13012V9.13112ZM8.802 12.5741C7.51267 12.5929 6.22904 12.7494 4.973 13.0411C4.87781 13.0561 4.78681 13.0908 4.70582 13.1429C4.62483 13.1951 4.55565 13.2637 4.50273 13.3442C4.44981 13.4247 4.4143 13.5154 4.39851 13.6105C4.38271 13.7055 4.38697 13.8028 4.411 13.8961C4.43096 13.9888 4.47047 14.0761 4.52689 14.1523C4.58332 14.2285 4.65535 14.2917 4.73818 14.3378C4.82101 14.3839 4.91273 14.4118 5.0072 14.4196C5.10167 14.4274 5.19673 14.415 5.286 14.3831C6.43815 14.107 7.61735 13.9594 8.802 13.9431C10.444 13.8896 12.0747 14.2326 13.556 14.9431C13.893 15.1091 14.223 15.2921 14.568 15.4431C14.6525 15.4818 14.7446 15.5007 14.8375 15.4984C14.9303 15.496 15.0214 15.4726 15.1039 15.4298C15.1863 15.387 15.2579 15.3259 15.3132 15.2513C15.3685 15.1767 15.406 15.0904 15.423 14.9991C15.4584 14.8442 15.4434 14.682 15.3803 14.5362C15.3172 14.3903 15.2092 14.2684 15.072 14.1881C14.8712 14.0579 14.6632 13.939 14.449 13.8321C12.6967 12.9584 10.7574 12.5265 8.8 12.5741H8.802Z" fill="#E3E3E3"/>
  </g>
  <defs>
  <clipPath id="clip0_78_9">
  <rect width="21" height="21" fill="white"/>
  </clipPath>
  </defs>
  </svg>