<svg width="45" height="45" viewBox="0 0 45 45" fill="none" xmlns="http://www.w3.org/2000/svg">
  <g clip-path="url(#clip0_130_33)">
  <path d="M21.097 0H23.909C24.0199 0.0317677 24.1328 0.0558314 24.247 0.0720062C27.7075 0.301592 31.0605 1.36778 34.018 3.179C36.8104 4.82149 39.2097 7.05503 41.0476 9.72295C42.8855 12.3909 44.1174 15.4286 44.657 18.623C44.809 19.44 44.889 20.27 45.002 21.094V23.91C44.966 24.198 44.926 24.486 44.895 24.775C44.3901 29.6446 42.3147 34.2177 38.9821 37.804C35.6495 41.3903 31.2405 43.7949 26.421 44.655C25.59 44.806 24.746 44.889 23.909 45.003H21.097C20.548 44.935 19.997 44.877 19.45 44.803C14.7342 44.1486 10.3465 42.0185 6.91554 38.7177C3.48454 35.4169 1.18628 31.1149 0.349998 26.428C0.198998 25.596 0.115 24.752 0 23.914V21.102C0.036 20.814 0.074999 20.526 0.105999 20.237C0.611976 15.3529 2.6986 10.7675 6.04875 7.17761C9.39891 3.58776 13.8294 1.18975 18.667 0.348007C19.474 0.199007 20.288 0.11 21.097 0ZM9.409 35.81C9.6 35.768 9.739 35.743 9.875 35.71C11.982 35.16 14.088 34.603 16.199 34.068C16.4205 34.0176 16.6524 34.0415 16.859 34.136C19.6757 35.5732 22.9084 35.9732 25.9905 35.2659C29.0726 34.5586 31.8074 32.7892 33.7157 30.2677C35.6239 27.7461 36.5839 24.6334 36.4272 21.4751C36.2706 18.3168 35.0074 15.3144 32.859 12.994C30.7107 10.6737 27.8142 9.18349 24.6773 8.78461C21.5403 8.38573 18.3631 9.10362 15.7023 10.8125C13.0416 12.5213 11.0672 15.1121 10.1252 18.1307C9.18312 21.1493 9.33351 24.4032 10.55 27.322C11.4 28.453 11.185 29.622 10.781 30.862C10.259 32.464 9.872 34.115 9.409 35.81Z" fill="#E3E3E3"/>
  <path d="M12.643 32.6159C12.931 31.5519 13.161 30.5279 13.494 29.5389C13.609 29.232 13.6492 28.9022 13.6115 28.5767C13.5738 28.2512 13.4591 27.9394 13.277 27.6669C12.1039 25.6041 11.6176 23.2215 11.8883 20.864C12.1591 18.5064 13.1729 16.2962 14.7831 14.553C16.3934 12.8099 18.5164 11.6242 20.8451 11.1676C23.1739 10.7111 25.5874 11.0073 27.7367 12.0134C29.8859 13.0195 31.6593 14.6833 32.8002 16.764C33.9412 18.8448 34.3905 21.2346 34.0832 23.5877C33.7759 25.9408 32.7278 28.1351 31.0908 29.853C29.4537 31.571 27.3125 32.7235 24.977 33.1439C22.2988 33.6188 19.5391 33.1186 17.198 31.7339C16.9888 31.6225 16.7474 31.5872 16.515 31.6339C15.321 31.9179 14.135 32.2399 12.947 32.5479C12.868 32.5709 12.787 32.5849 12.643 32.6159ZM26.515 28.5989C26.7214 28.5988 26.9276 28.5845 27.132 28.5559C28.712 28.2279 29.848 27.3289 29.794 25.6559C29.7916 25.5662 29.7698 25.4782 29.7301 25.3977C29.6904 25.3173 29.6337 25.2464 29.564 25.1899C28.641 24.7179 27.703 24.2749 26.764 23.8359C26.6987 23.8023 26.6274 23.7819 26.5542 23.7759C26.481 23.7698 26.4073 23.7784 26.3374 23.801C26.2675 23.8236 26.2028 23.8597 26.1469 23.9074C26.0911 23.9551 26.0452 24.0134 26.012 24.0789C25.72 24.4789 25.386 24.8519 25.081 25.2439C25.0014 25.3678 24.8781 25.4571 24.7356 25.4942C24.5931 25.5312 24.4419 25.5133 24.312 25.4439C22.3897 24.6837 20.7795 23.2982 19.741 21.5109C19.6613 21.406 19.6221 21.2758 19.6305 21.1444C19.639 21.0129 19.6945 20.8888 19.787 20.7949C20.0734 20.4627 20.3348 20.1098 20.569 19.7389C20.6861 19.5455 20.722 19.3137 20.669 19.0939C20.324 18.1789 19.938 17.2789 19.545 16.3819C19.474 16.2209 19.319 16.0079 19.176 15.9819C18.8788 15.8765 18.56 15.8467 18.2483 15.8952C17.9367 15.9437 17.6421 16.0691 17.391 16.2599C16.8912 16.7068 16.5194 17.2787 16.3137 17.9168C16.1081 18.5549 16.0761 19.2363 16.221 19.8909C16.5201 21.103 17.1008 22.2274 17.916 23.1729C19.2569 25.0885 21.0669 26.628 23.173 27.6439C24.2077 28.1975 25.349 28.5232 26.52 28.5989H26.515Z" fill="#E3E3E3"/>
  </g>
  <defs>
  <clipPath id="clip0_130_33">
  <rect width="45" height="45" fill="white"/>
  </clipPath>
  </defs>
  </svg>