<svg width="39" height="40" viewBox="0 0 39 40" fill="none" xmlns="http://www.w3.org/2000/svg">
<path d="M35.7651 9.23302V30.733C35.7416 30.7909 35.7235 30.8508 35.711 30.912C35.5187 32.3427 34.8029 33.6514 33.702 34.585C32.601 35.5187 31.193 36.011 29.7501 35.967C22.8411 35.941 15.932 35.96 9.02203 35.956C8.65972 35.9624 8.29749 35.939 7.93902 35.886C6.54799 35.6809 5.2794 34.976 4.37066 33.9031C3.46192 32.8301 2.9753 31.4628 3.00201 30.057C3.00201 23.3397 3.00201 16.6223 3.00201 9.90501C2.98576 9.13208 3.12494 8.36372 3.41131 7.64562C3.69768 6.92751 4.12545 6.27424 4.66912 5.72459C5.21279 5.17495 5.86129 4.74017 6.57623 4.44597C7.29116 4.15177 8.05792 4.0042 8.83099 4.01201C15.8683 3.99201 22.9057 3.99201 29.943 4.01201C31.2507 4.00036 32.5233 4.43397 33.5518 5.24162C34.5803 6.04928 35.3033 7.18287 35.602 8.45598C35.665 8.71398 35.7111 8.97402 35.7651 9.23302ZM27.879 15.495C27.313 15.495 26.779 15.46 26.254 15.501C25.4946 15.5322 24.7493 15.7149 24.0616 16.0384C23.3739 16.362 22.7579 16.8197 22.2497 17.3848C21.7415 17.9499 21.3514 18.6109 21.1025 19.329C20.8535 20.047 20.7507 20.8076 20.8 21.566C20.7562 22.7423 21.1342 23.8957 21.8655 24.8181C22.5969 25.7405 23.6336 26.3714 24.789 26.597C26.7975 27.0131 28.8857 26.7965 30.766 25.977C30.8254 25.9358 30.8743 25.8814 30.909 25.818C30.9437 25.7547 30.9632 25.6842 30.966 25.612C30.966 25.005 30.904 24.398 30.903 23.791C30.8963 19.653 30.8963 15.5153 30.903 11.378C30.903 11.078 30.8161 10.997 30.5261 11.004C29.7481 11.022 28.969 11.02 28.191 11.004C27.934 11.004 27.865 11.088 27.866 11.335C27.876 12.593 27.866 13.852 27.866 15.11L27.879 15.495ZM7.76299 26.495C7.81736 26.5106 7.87288 26.522 7.92901 26.529C8.91001 26.529 9.89103 26.539 10.871 26.52C10.9449 26.5101 11.0159 26.4844 11.079 26.4447C11.1422 26.4051 11.196 26.3523 11.237 26.29C11.577 25.712 11.8921 25.119 12.2081 24.528C12.7991 23.422 13.385 22.313 13.99 21.174C14.053 21.274 14.106 21.35 14.149 21.431C14.991 22.997 15.838 24.56 16.667 26.131C16.7134 26.2537 16.7983 26.358 16.909 26.4283C17.0197 26.4987 17.1503 26.5312 17.2811 26.521C18.2721 26.505 19.2641 26.516 20.2551 26.514C20.3441 26.514 20.433 26.498 20.572 26.484C20.489 26.325 20.4341 26.202 20.3641 26.084C19.0231 23.884 17.685 21.684 16.33 19.484C16.2554 19.3855 16.2157 19.265 16.2173 19.1415C16.219 19.0179 16.2618 18.8984 16.339 18.802C17.607 16.731 18.8611 14.651 20.1191 12.574C20.1771 12.474 20.229 12.374 20.31 12.232C20.2064 12.2072 20.1012 12.1898 19.995 12.18C19.095 12.18 18.204 12.169 17.308 12.189C17.235 12.1984 17.165 12.2238 17.103 12.2634C17.0409 12.3029 16.9883 12.3558 16.949 12.418C16.076 14.052 15.22 15.695 14.358 17.335C14.322 17.403 14.278 17.466 14.223 17.555C14.067 17.247 13.933 16.969 13.787 16.698C13.024 15.271 12.265 13.842 11.481 12.427C11.4254 12.3562 11.3552 12.2983 11.2751 12.2572C11.195 12.2161 11.107 12.1929 11.017 12.189C10.08 12.167 9.14106 12.176 8.20306 12.181C8.0828 12.1916 7.96342 12.2109 7.846 12.239C7.927 12.386 7.98099 12.488 8.03899 12.587C9.30599 14.733 10.57 16.881 11.847 19.021C11.9225 19.1177 11.9641 19.2367 11.9651 19.3595C11.9662 19.4822 11.9268 19.6019 11.853 19.7C10.539 21.83 9.24207 23.972 7.94207 26.111C7.87607 26.233 7.82899 26.358 7.76299 26.495Z" fill="#707070"/>
<path d="M27.862 18.078C27.868 18.191 27.878 18.285 27.878 18.378C27.878 20.178 27.873 21.978 27.885 23.778C27.885 24.046 27.785 24.146 27.544 24.145C27.1109 24.1682 26.6767 24.1645 26.244 24.1341C25.7449 24.0926 25.271 23.8971 24.8878 23.5747C24.5046 23.2522 24.2311 22.8187 24.1049 22.3341C23.8566 21.7101 23.808 21.0244 23.966 20.3717C24.124 19.7189 24.4808 19.1313 24.987 18.69C25.3896 18.3788 25.857 18.1622 26.3547 18.0562C26.8524 17.9503 27.3676 17.9577 27.862 18.078V18.078Z" fill="#707070"/>
</svg>
