<svg width="50" height="50" viewBox="0 0 50 50" fill="none" xmlns="http://www.w3.org/2000/svg">
    <g clip-path="url(#clip0_80_157)">
    <rect width="50" height="50" rx="10" fill="#151515"/>
    <path d="M17.152 33.9763C15.888 33.9763 14.748 33.7562 13.732 33.3162C12.724 32.8762 11.892 32.2483 11.236 31.4323C10.588 30.6083 10.176 29.6323 10 28.5043L13 28.0483C13.256 29.0723 13.78 29.8643 14.572 30.4243C15.372 30.9843 16.292 31.2643 17.332 31.2643C17.948 31.2643 18.528 31.1683 19.072 30.9763C19.616 30.7843 20.056 30.5043 20.392 30.1363C20.736 29.7683 20.908 29.3163 20.908 28.7803C20.908 28.5403 20.868 28.3203 20.788 28.1203C20.708 27.9123 20.588 27.7283 20.428 27.5683C20.276 27.4083 20.076 27.2643 19.828 27.1363C19.588 27.0003 19.308 26.8843 18.988 26.7883L14.524 25.4683C14.14 25.3563 13.724 25.2083 13.276 25.0243C12.836 24.8323 12.416 24.5723 12.016 24.2443C11.624 23.9083 11.3 23.4843 11.044 22.9723C10.796 22.4523 10.672 21.8123 10.672 21.0522C10.672 19.9402 10.952 19.0082 11.512 18.2562C12.08 17.4962 12.84 16.9282 13.792 16.5523C14.752 16.1762 15.816 15.9922 16.984 16.0003C18.168 16.0082 19.224 16.2122 20.152 16.6123C21.08 17.0043 21.856 17.5763 22.48 18.3283C23.104 19.0803 23.544 19.9882 23.8 21.0522L20.692 21.5922C20.564 20.9842 20.316 20.4682 19.948 20.0443C19.588 19.6122 19.144 19.2843 18.616 19.0603C18.096 18.8363 17.54 18.7163 16.948 18.7003C16.372 18.6923 15.836 18.7802 15.34 18.9642C14.852 19.1403 14.456 19.3963 14.152 19.7322C13.856 20.0683 13.708 20.4603 13.708 20.9083C13.708 21.3323 13.836 21.6803 14.092 21.9523C14.348 22.2162 14.664 22.4282 15.04 22.5883C15.424 22.7403 15.812 22.8683 16.204 22.9723L19.3 23.8362C19.724 23.9482 20.2 24.1003 20.728 24.2923C21.256 24.4843 21.764 24.7523 22.252 25.0963C22.74 25.4403 23.14 25.8923 23.452 26.4523C23.772 27.0123 23.932 27.7243 23.932 28.5883C23.932 29.4843 23.744 30.2723 23.368 30.9523C23 31.6243 22.5 32.1842 21.868 32.6322C21.236 33.0802 20.512 33.4163 19.696 33.6403C18.888 33.8643 18.04 33.9763 17.152 33.9763Z" fill="#D9D9D9"/>
    <path d="M33.277 33.9763C32.013 33.9763 30.873 33.7562 29.857 33.3162C28.849 32.8762 28.017 32.2483 27.361 31.4323C26.713 30.6083 26.301 29.6323 26.125 28.5043L29.125 28.0483C29.381 29.0723 29.905 29.8643 30.697 30.4243C31.497 30.9843 32.417 31.2643 33.457 31.2643C34.073 31.2643 34.653 31.1683 35.197 30.9763C35.741 30.7843 36.181 30.5043 36.517 30.1363C36.861 29.7683 37.033 29.3163 37.033 28.7803C37.033 28.5403 36.993 28.3203 36.913 28.1203C36.833 27.9123 36.713 27.7283 36.553 27.5683C36.401 27.4083 36.201 27.2643 35.953 27.1363C35.713 27.0003 35.433 26.8843 35.113 26.7883L30.649 25.4683C30.265 25.3563 29.849 25.2083 29.401 25.0243C28.961 24.8323 28.541 24.5723 28.141 24.2443C27.749 23.9083 27.425 23.4843 27.169 22.9723C26.921 22.4523 26.797 21.8123 26.797 21.0522C26.797 19.9402 27.077 19.0082 27.637 18.2562C28.205 17.4962 28.965 16.9282 29.917 16.5523C30.877 16.1762 31.941 15.9922 33.109 16.0003C34.293 16.0082 35.349 16.2122 36.277 16.6123C37.205 17.0043 37.981 17.5763 38.605 18.3283C39.229 19.0803 39.669 19.9882 39.925 21.0522L36.817 21.5922C36.689 20.9842 36.441 20.4682 36.073 20.0443C35.713 19.6122 35.269 19.2843 34.741 19.0603C34.221 18.8363 33.665 18.7163 33.073 18.7003C32.497 18.6923 31.961 18.7802 31.465 18.9642C30.977 19.1403 30.581 19.3963 30.277 19.7322C29.981 20.0683 29.833 20.4603 29.833 20.9083C29.833 21.3323 29.961 21.6803 30.217 21.9523C30.473 22.2162 30.789 22.4282 31.165 22.5883C31.549 22.7403 31.937 22.8683 32.329 22.9723L35.425 23.8362C35.849 23.9482 36.325 24.1003 36.853 24.2923C37.381 24.4843 37.889 24.7523 38.377 25.0963C38.865 25.4403 39.265 25.8923 39.577 26.4523C39.897 27.0123 40.057 27.7243 40.057 28.5883C40.057 29.4843 39.869 30.2723 39.493 30.9523C39.125 31.6243 38.625 32.1842 37.993 32.6322C37.361 33.0802 36.637 33.4163 35.821 33.6403C35.013 33.8643 34.165 33.9763 33.277 33.9763Z" fill="#D9D9D9"/>
    </g>
    <defs>
    <clipPath id="clip0_80_157">
    <rect width="50" height="50" fill="white"/>
    </clipPath>
    </defs>
    </svg>